<?xml version="1.0" encoding="utf-8"?>
<!-- Generator: Adobe Illustrator 24.0.2, SVG Export Plug-In . SVG Version: 6.00 Build 0)  -->
<svg version="1.1" id="Livello_1" xmlns="http://www.w3.org/2000/svg" xmlns:xlink="http://www.w3.org/1999/xlink" x="0px" y="0px"
	 viewBox="0 0 718 397" style="enable-background:new 0 0 718 397;" xml:space="preserve">
<style type="text/css">
	.st0{fill:#FFFFFF;}
	.st1{fill:url(#SVGID_1_);}
	.st2{fill:url(#SVGID_2_);}
	.st3{fill:url(#SVGID_3_);}
	.st4{fill:url(#SVGID_4_);}
	.st5{fill:url(#SVGID_5_);}
	.st6{fill:url(#SVGID_6_);}
	.st7{fill:url(#SVGID_7_);}
	.st8{fill:url(#SVGID_8_);}
	.st9{fill:url(#SVGID_9_);}
	.st10{fill:url(#SVGID_10_);}
	.st11{fill:url(#SVGID_11_);}
	.st12{fill:url(#SVGID_12_);}
	.st13{fill:url(#SVGID_13_);}
	.st14{fill:url(#SVGID_14_);}
	.st15{fill:#38004D;}
	.st16{fill:url(#SVGID_15_);}
	.st17{fill:url(#SVGID_16_);}
	.st18{fill:url(#SVGID_17_);}
	.st19{fill:url(#SVGID_18_);}
	.st20{fill:url(#SVGID_19_);}
	.st21{fill:url(#SVGID_20_);}
	.st22{fill:#9700CC;}
	.st23{fill:url(#SVGID_21_);}
	.st24{fill:url(#SVGID_22_);}
	.st25{fill:url(#SVGID_23_);}
	.st26{fill:url(#SVGID_24_);}
	.st27{fill:url(#SVGID_25_);}
	.st28{fill:url(#SVGID_26_);}
	.st29{fill:url(#SVGID_27_);}
	.st30{fill:url(#SVGID_28_);}
	.st31{fill:url(#SVGID_29_);}
	.st32{fill:url(#SVGID_30_);}
	.st33{fill:url(#SVGID_31_);}
	.st34{fill:url(#SVGID_32_);}
	.st35{fill:url(#SVGID_33_);}
	.st36{fill:url(#SVGID_34_);}
	.st37{fill:url(#SVGID_35_);}
	.st38{fill:url(#SVGID_36_);}
	.st39{fill:url(#SVGID_37_);}
	.st40{fill:url(#SVGID_38_);}
	.st41{fill:url(#SVGID_39_);}
</style>
<g>
	<g>
		<path d="M266.32,226.54c-8.15,0-13.91-4.57-14.03-11.32h5.64c0.35,3.4,2.74,6.8,8.38,6.8c5.12,0,8.15-2.93,8.15-6.8
			c0-11.02-21.94-3.99-21.94-19.17c0-6.74,5.41-11.32,13.44-11.32c7.74,0,12.8,4.28,13.44,10.5h-5.82
			c-0.35-2.76-2.91-5.86-7.86-5.92c-4.37-0.12-7.8,2.17-7.8,6.57c0,10.55,21.88,3.99,21.88,19.12
			C279.82,220.8,275.11,226.54,266.32,226.54z"/>
		<path d="M301.41,226.66c-9.08,0-15.77-6.45-15.77-16.65c0-10.14,6.46-16.54,15.77-16.54c9.25,0,15.31,6.57,15.31,15.36
			c0,1.17-0.06,2.11-0.17,3.23h-25.49c0.41,6.51,4.95,10.09,10.36,10.09c4.77,0,7.8-2.46,8.96-5.92h5.7
			C314.45,222.09,309.33,226.66,301.41,226.66z M291.11,207.72h20.14c0.06-6.27-4.6-9.73-10.07-9.73
			C296,197.99,291.7,201.45,291.11,207.72z"/>
		<path d="M337.26,193.47c7.92,0,13.09,4.1,14.72,10.85h-5.7c-1.11-3.87-4.31-6.33-9.02-6.33c-5.82,0-10.13,4.16-10.13,12.02
			c0,7.97,4.31,12.14,10.13,12.14c4.71,0,7.86-2.29,9.02-6.33h5.7c-1.63,6.39-6.81,10.85-14.72,10.85
			c-9.08,0-15.54-6.45-15.54-16.65C321.73,199.92,328.18,193.47,337.26,193.47z"/>
		<path d="M387.31,226.13h-5.3v-4.75c-2.04,3.34-5.94,5.22-10.18,5.22c-7.33,0-13.09-4.57-13.09-13.78V194h5.24v18.12
			c0,6.51,3.55,9.85,8.9,9.85c5.47,0,9.14-3.4,9.14-10.32V194h5.3V226.13z"/>
		<path d="M401.57,226.13h-5.3V194h5.3v5.22c1.8-3.58,5.24-5.8,10.3-5.8v5.51h-1.4c-5.06,0-8.9,2.29-8.9,9.73V226.13z"/>
		<path d="M431.77,226.66c-9.08,0-15.77-6.45-15.77-16.65c0-10.14,6.46-16.54,15.77-16.54c9.25,0,15.31,6.57,15.31,15.36
			c0,1.17-0.06,2.11-0.17,3.23h-25.49c0.41,6.51,4.95,10.09,10.36,10.09c4.77,0,7.8-2.46,8.96-5.92h5.7
			C444.81,222.09,439.69,226.66,431.77,226.66z M421.47,207.72h20.14c0.06-6.27-4.6-9.73-10.07-9.73
			C426.36,197.99,422.06,201.45,421.47,207.72z"/>
		<linearGradient id="SVGID_1_" gradientUnits="userSpaceOnUse" x1="407.7194" y1="208.919" x2="595.1237" y2="196.4084">
			<stop  offset="0" style="stop-color:#035EE8"/>
			<stop  offset="0.293" style="stop-color:#1088E7"/>
			<stop  offset="0.7731" style="stop-color:#25C9E6"/>
			<stop  offset="1" style="stop-color:#2DE2E6"/>
		</linearGradient>
		<path class="st1" d="M453.19,184.97h26.6V193h-16.64v8.68h12.45v7.8h-12.45v16.65h-9.95V184.97z"/>
		<linearGradient id="SVGID_2_" gradientUnits="userSpaceOnUse" x1="407.7866" y1="209.9254" x2="595.1909" y2="197.4148">
			<stop  offset="0" style="stop-color:#035EE8"/>
			<stop  offset="0.293" style="stop-color:#1088E7"/>
			<stop  offset="0.7731" style="stop-color:#25C9E6"/>
			<stop  offset="1" style="stop-color:#2DE2E6"/>
		</linearGradient>
		<path class="st2" d="M485.03,182.74h9.95v43.39h-9.95V182.74z"/>
		<linearGradient id="SVGID_3_" gradientUnits="userSpaceOnUse" x1="408.2777" y1="217.2818" x2="595.6819" y2="204.7711">
			<stop  offset="0" style="stop-color:#035EE8"/>
			<stop  offset="0.293" style="stop-color:#1088E7"/>
			<stop  offset="0.7731" style="stop-color:#25C9E6"/>
			<stop  offset="1" style="stop-color:#2DE2E6"/>
		</linearGradient>
		<path class="st3" d="M514.53,192.94c4.83,0,8.26,2.23,10.01,5.1v-4.63h9.95v32.72h-9.95v-4.63c-1.8,2.87-5.24,5.1-10.07,5.1
			c-7.92,0-14.26-6.57-14.26-16.89S506.56,192.94,514.53,192.94z M517.44,201.68c-3.72,0-7.1,2.82-7.1,8.03s3.38,8.15,7.1,8.15
			c3.78,0,7.1-2.87,7.1-8.09S521.22,201.68,517.44,201.68z"/>
		<linearGradient id="SVGID_4_" gradientUnits="userSpaceOnUse" x1="408.9547" y1="227.4228" x2="596.3589" y2="214.9121">
			<stop  offset="0" style="stop-color:#035EE8"/>
			<stop  offset="0.293" style="stop-color:#1088E7"/>
			<stop  offset="0.7731" style="stop-color:#25C9E6"/>
			<stop  offset="1" style="stop-color:#2DE2E6"/>
		</linearGradient>
		<path class="st4" d="M554.05,192.94c4.77,0,8.26,2.17,10.01,5.1v-4.63h9.95v32.66c0,8.74-5,16.18-16.24,16.18
			c-9.66,0-15.95-4.93-16.82-12.72h9.83c0.64,2.46,3.08,4.05,6.52,4.05c3.78,0,6.75-1.99,6.75-7.51v-4.63
			c-1.8,2.87-5.24,5.16-10.01,5.16c-7.97,0-14.32-6.57-14.32-16.89S546.07,192.94,554.05,192.94z M556.96,201.68
			c-3.72,0-7.1,2.82-7.1,8.03s3.38,8.15,7.1,8.15c3.78,0,7.1-2.87,7.1-8.09S560.74,201.68,556.96,201.68z"/>
	</g>
	<g>
		<linearGradient id="SVGID_5_" gradientUnits="userSpaceOnUse" x1="143.9922" y1="209.9696" x2="222.3123" y2="209.9696">
			<stop  offset="0" style="stop-color:#035EE8"/>
			<stop  offset="0.293" style="stop-color:#1088E7"/>
			<stop  offset="0.7731" style="stop-color:#25C9E6"/>
			<stop  offset="1" style="stop-color:#2DE2E6"/>
		</linearGradient>
		<path class="st5" d="M183.11,243.95l39.17-22.56l0.03-30.19l-13.01,7.56l-12.97-7.49v-15.29l-13.09,7.56l-13.11-7.56l-0.02,15.22
			l-13.01,7.56l-13.09-7.56l-0.03,30.19l26.03,14.98L183.11,243.95 M196.26,221.08l0.04-14.76l-13.09,7.56l-13.03-7.56l-0.19,14.22
			l-12.92-7.02l13.11-7.2l13.06-7.54l13.06,7.54l12.97,7.2L196.26,221.08z"/>
		<linearGradient id="SVGID_6_" gradientUnits="userSpaceOnUse" x1="135.1473" y1="152.4689" x2="287.3175" y2="178.5114">
			<stop  offset="0" style="stop-color:#035EE8"/>
			<stop  offset="0.293" style="stop-color:#1088E7"/>
			<stop  offset="0.7731" style="stop-color:#25C9E6"/>
			<stop  offset="1" style="stop-color:#2DE2E6"/>
		</linearGradient>
		<polygon class="st6" points="183.2,153.05 183.2,168.34 196.29,160.6 		"/>
	</g>
</g>
</svg>
