<?xml version="1.0" encoding="UTF-8"?>
<svg width="153px" height="45px" viewBox="0 0 153 45" version="1.1" xmlns="http://www.w3.org/2000/svg" xmlns:xlink="http://www.w3.org/1999/xlink">
    <title>Kordia_logo_Teal+grey</title>
    <g id="1-Website-pages" stroke="none" stroke-width="1" fill="none" fill-rule="evenodd">
        <g id="Kordia-Mega-Menu---Final" transform="translate(-516.000000, -31.000000)" fill-rule="nonzero">
            <g id="Kordia_logo_Teal+grey" transform="translate(516.000000, 31.000000)">
                <path d="M30.112,17.4976 C29.7783515,17.5420827 29.4541355,17.6404282 29.152,17.7888 L29.0304,17.9296 C27.7612623,19.4697909 26.7998384,21.2394626 26.1984,23.1424 L26.1984,23.1424 L26.1984,23.1424 C26.1184,23.3856 26.048,23.632 25.9808,23.8784 C27.6672,23.8048 29.9168,25.1776 32.7584,27.2704 C33.888,26.448 35.1552,25.4432 36.3776,24.4736 C37.6992,23.4272 38.9952,22.4032 40.3648,21.3792 C34.56,17.328 31.264,17.3152 30.112,17.4976" id="Path" fill="#00BBCD"></path>
                <path d="M25.8496,25.1744 C25.7974427,25.1844535 25.7461021,25.1983583 25.696,25.216 C25.5308952,26.1317511 25.444181,27.0599135 25.4368,27.9904 L25.4368,28.0736 L25.4368,28.0736 C25.437909,29.0308923 25.5246547,29.9861663 25.696,30.928 C25.7461021,30.9456417 25.7974427,30.9595465 25.8496,30.9696 C27.1904,31.1968 31.7728,28.0896 31.7728,28.0896 C31.7728,28.0896 27.2,24.96 25.8496,25.1744" id="Path" fill="#00BBCD"></path>
                <path d="M41.4976,12.0416 L41.424,12.0416 C37.4496,12.0416 33.328,13.7824 30.384,16.4544 C31.18115,16.3222661 31.9964445,16.3472685 32.784,16.528 C33.4492832,16.6506036 34.1024741,16.8315696 34.736,17.0688 C37.056,17.8784 38.128,18.3872 41.456,20.5888 C44.7904,18.3776 45.8624,17.8688 48.176,17.0688 C48.8095259,16.8315696 49.4627168,16.6506036 50.128,16.528 C50.9155449,16.3471864 51.7308555,16.3221835 52.528,16.4544 C49.584,13.7824 45.4592,12.0416 41.4848,12.0416" id="Path" fill="#00BBCD"></path>
                <path d="M52.8,17.4976 C53.1335411,17.5425773 53.4576791,17.6408992 53.76,17.7888 L53.8816,17.9296 C55.1507377,19.4697909 56.1121616,21.2394626 56.7136,23.1424 C56.7936,23.3856 56.864,23.632 56.9312,23.8784 C55.2448,23.8048 52.9952,25.1776 50.1536,27.2704 C49.024,26.448 47.7568,25.4432 46.5344,24.4736 C45.2128,23.4272 43.9168,22.4032 42.5472,21.3792 C48.3616,17.328 51.6608,17.3152 52.8,17.4976" id="Path" fill="#00BBCD"></path>
                <path d="M51.1488,28.0896 C51.1488,28.0896 55.7344,31.2 57.0752,30.9696 C57.1273573,30.9595465 57.1786979,30.9456417 57.2288,30.928 C57.4001453,29.9861663 57.486891,29.0308923 57.488,28.0736 L57.488,28.0736 L57.488,27.9904 C57.480619,27.0599135 57.3939048,26.1317511 57.2288,25.216 C57.1786979,25.1983583 57.1273573,25.1844535 57.0752,25.1744 C55.7344,24.944 51.1488,28.0896 51.1488,28.0896" id="Path" fill="#00BBCD"></path>
                <path d="M30.112,38.6368 C29.7785352,38.5933273 29.4543271,38.4960648 29.152,38.3488 L29.0304,38.208 C27.7612623,36.6678091 26.7998384,34.8981374 26.1984,32.9952 C26.1984,32.9952 26.1984,32.9952 26.1984,32.9952 L26.1984,32.9952 C26.1184,32.752 26.048,32.5088 25.9808,32.2624 C27.6672,32.3328 29.9168,30.96 32.7584,28.8704 C33.888,29.6928 35.1552,30.6944 36.3776,31.6672 C37.6992,32.7136 38.9952,33.7376 40.3648,34.7584 C34.5536,38.8224 31.2544,38.8352 30.1024,38.6496" id="Path" fill="#00BBCD"></path>
                <path d="M41.4976,44.0928 L41.424,44.0928 C37.4496,44.0928 33.328,42.3552 30.384,39.68 C31.1810432,39.8137186 31.9966482,39.7887068 32.784,39.6064 C33.449961,39.486756 34.1034159,39.3057169 34.736,39.0656 C37.056,38.256 38.128,37.7472 41.456,35.5456 C44.7904,37.7568 45.8624,38.2656 48.176,39.0656 C48.8085841,39.3057169 49.462039,39.486756 50.128,39.6064 C50.9153409,39.7887905 51.7309625,39.8138029 52.528,39.68 C49.584,42.3552 45.4592,44.0928 41.4848,44.0928" id="Path" fill="#00BBCD"></path>
                <path d="M52.8,38.6368 C53.133359,38.5928333 53.4574893,38.4955942 53.76,38.3488 L53.8816,38.208 C55.1507377,36.6678091 56.1121616,34.8981374 56.7136,32.9952 C56.7936,32.752 56.864,32.5088 56.9312,32.2624 C55.2448,32.3328 52.9952,30.96 50.1536,28.8704 C49.024,29.6928 47.7568,30.6944 46.5344,31.6672 C45.2128,32.7136 43.9168,33.7376 42.5472,34.7584 C48.3584,38.8224 51.6576,38.8352 52.8096,38.6496" id="Path" fill="#00BBCD"></path>
                <path d="M80.3872,13.2192 L79.3312,12.752 L78.72,12.512 C77.6864363,12.1744974 76.6072239,11.9975065 75.52,11.9872 C72.7845286,12.0007916 70.1862461,13.1869133 68.384,15.2448 L68.384,12.3648 L62.5152,12.3648 C61.2568744,12.3648 60.2368,13.3848744 60.2368,14.6432 L60.2368,41.0688 C60.2368,41.6736241 60.4772836,42.2536295 60.9052589,42.6810045 C61.3332341,43.1083795 61.9135765,43.3480495 62.5184,43.3472023 L68.3808,43.3472023 C68.3808,43.3472023 68.3808,28.1504 68.3808,28.1504 C68.3808,21.2576 72.8768,20.512 74.8096,20.512 C75.3711122,20.509391 75.9305441,20.5803959 76.4736,20.7232 L76.8352,20.816 C76.8352,20.816 80.384,13.2224 80.384,13.2224" id="Path" fill="#414042"></path>
                <path d="M15.2064,27.6928 L27.6416,13.6288 C27.8493171,13.4053128 27.9036072,13.0794284 27.7795604,12.8006716 C27.6555137,12.5219148 27.3770751,12.3440947 27.072,12.3488 L20.1024,12.3488 C19.2356476,12.3490541 18.4102184,12.7192748 17.8336,13.3664 C15.68,15.8048 10.2848,21.8752 8.32,24.0992 L8.32,1.6384 C8.32000186,0.800175272 7.64142287,0.120164684 6.8032,0.1184 L1.6832,0.1184 C0.84372718,0.1184 0.1632,0.79892718 0.1632,1.6384 L0.1632,41.8304 C0.164964684,42.6686229 0.844975272,43.3472008 1.6832,43.3472008 L6.8032,43.3472008 C7.64090551,43.3472008 8.32,42.6681055 8.32,41.8304 L8.32,31.8144 L17.6,42.32 C18.1775948,42.9725103 19.0069731,43.3464294 19.8784,43.3472008 L27.456,43.3472008 C27.7552793,43.3476431 28.0268325,43.1720415 28.1492149,42.8989282 C28.2715973,42.6258149 28.2219201,42.3062696 28.0224,42.0832 L15.2064,27.6928 Z" id="Path" fill="#414042"></path>
                <path d="M139.1712,31.5456 C139.1712,34.0128 136.896,36.7744 133.8528,36.7744 C131.888,36.7744 130.8256,35.4144 130.8256,34.1312 C130.8256,32.6496 131.8816,30.9792 134.8384,30.7232 L139.1712,30.336 L139.1712,31.5456 Z M149.9968,38.6336 C148.276951,38.1445331 147.109816,36.5487885 147.1648,34.7616 L147.1648,23.216 C147.1648,19.6384 145.9552,16.6656 143.6672,14.6176 C141.5104,12.6976 138.5088,11.6704 134.9888,11.6704 C130.9792,11.6704 127.056,12.6784 124.4864,14.3712 L124.2176,14.5472 C124.2176,14.5472 124.7968,16.88 125.0944,18.176 C125.290473,18.9369933 125.794941,19.5817843 126.4864,19.9552 C127.45483,20.4693705 128.596256,20.5473272 129.6256,20.1696 C131.249162,19.6015642 132.952317,19.2937652 134.672,19.2576 C138.704,19.2576 139.1712,21.0848 139.1712,22.4576 L139.1712,23.1968 L133.4112,23.7248 C130.759908,23.9275558 128.239725,24.9598122 126.208,26.6752 C124.1184,28.5216 123.056,31.008 123.056,34.0672 C123.056422,36.5761208 123.985431,38.9961043 125.664,40.8608 C126.9856,42.3104 129.3888,44.0384 133.344,44.0384 C136.5696,44.0384 139.104,43.0176 140.7424,41.0784 C141.7024,43.0592 143.1232,44.0288 145.0304,44.0288 C148.8544,44.0288 150.2496,39.3952 150.3072,39.1968 L150.4352,38.752 L149.9968,38.6336 Z" id="Shape" fill="#414042"></path>
                <path d="M112.2592,13.8816 L112.2592,41.8304 C112.260965,42.6686229 112.940975,43.3472034 113.7792,43.3472034 L118.9472,43.3472034 C119.35059,43.3480519 119.737703,43.1881831 120.022943,42.9029429 C120.308183,42.6177028 120.468052,42.2305896 120.467203,41.8272 L120.467203,13.8848 C120.467203,13.0453272 119.786673,12.3648 118.9472,12.3648 L113.7792,12.3648 C112.939727,12.3648 112.2592,13.0453272 112.2592,13.8848" id="Path" fill="#414042"></path>
                <path d="M116.384,0.096 C114.019338,0.096 112.1024,2.01293762 112.1024,4.3776 C112.1024,6.74226238 114.019338,8.6592 116.384,8.6592 C118.748662,8.6592 120.6656,6.74226238 120.6656,4.3776 C120.663835,2.013669 118.747931,0.0977647869 116.384,0.096" id="Path" fill="#414042"></path>
                <path d="M150.4,14.2688 C150.406154,14.1354056 150.357194,14.0053481 150.264603,13.9091256 C150.172011,13.8129031 150.043932,13.7589796 149.9104,13.76 L149.4016,13.76 C149.2896,13.76 149.2416,13.8048 149.2416,13.9168 L149.2416,14.6656 C149.2416,14.7776 149.2896,14.8256 149.4016,14.8256 L149.9104,14.8256 C150.04478,14.8266192 150.173672,14.7723584 150.266864,14.6755363 C150.360055,14.5787142 150.409352,14.4478434 150.4032,14.3136 L150.4,14.2688 Z M150.496,15.0976 C150.4334,15.1385201 150.412545,15.2205506 150.448,15.2864 L150.848,16.0832 C150.912,16.2112 150.848,16.3072 150.704,16.3072 L150.448,16.3072 C150.385342,16.3061613 150.329058,16.2686388 150.304,16.2112 L149.9424,15.36 C149.918711,15.3014302 149.861575,15.2633396 149.7984,15.264 L149.4016,15.264 C149.2896,15.264 149.2416,15.312 149.2416,15.424 L149.2416,16.1408 C149.2416,16.2496 149.1936,16.3008 149.0816,16.3008 L148.9088,16.3008 C148.7936,16.3008 148.7488,16.2496 148.7488,16.1408 L148.7488,13.472 C148.7488,13.36 148.7936,13.312 148.9088,13.312 L149.9104,13.312 C150.180066,13.2991342 150.442685,13.4004103 150.633889,13.591005 C150.825092,13.7815996 150.927206,14.0438946 150.9152,14.3136 L150.9152,14.3808 C150.879645,14.6663175 150.729467,14.9250854 150.4992,15.0976 M152.1536,14.7136 C152.1536,13.392 151.216,12.4736 149.7664,12.4736 L149.7024,12.4736 C148.2528,12.4736 147.3152,13.3824 147.3152,14.7136 L147.3152,15.0336 C147.3152,16.3552 148.2528,17.2736 149.7024,17.2736 L149.7664,17.2736 C151.216,17.2736 152.1536,16.368 152.1536,15.0336 L152.1536,14.7136 Z M149.76,17.7408 L149.696,17.7408 C147.9456,17.7408 146.816,16.624 146.816,15.0336 L146.816,14.72 C146.816,13.12 147.9296,12.0128 149.696,12.0128 L149.76,12.0128 C151.5104,12.0128 152.64,13.1264 152.64,14.72 L152.64,15.04 C152.64,16.64 151.5232,17.7472 149.76,17.7472" id="Shape" fill="#414042"></path>
                <path d="M100.2016,33.1232 C99.2416,34.4032 97.264,36.4128 94.1216,36.4128 C89.3824,36.4128 86.1984,33.0112 86.1984,27.9488 C86.1984,22.8864 89.6,19.248 94.272,19.248 C97.5424,19.248 99.5104,20.7392 100.2016,21.376 L100.2016,33.1232 Z M100.2016,1.6384 L100.2016,13.088 C98.1527864,12.1860201 95.9439201,11.7039867 93.7056,11.6704 C84.6016,11.6704 77.9968,18.4896 77.9968,27.8848 C77.9968,34.0416 80.672,37.8464 82.9184,39.9488 C85.6488977,42.5323616 89.2524365,43.9925146 93.0112,44.0384 C96.2816,44.0384 98.7712,42.6208 100.5024,41.3248 L100.5024,43.344 L106.8256,43.344 C107.228695,43.3457053 107.615818,43.1865505 107.901152,42.9018176 C108.186486,42.6170846 108.346456,42.2302973 108.345603,41.8272 L108.345603,1.6384 C108.345603,0.800175272 107.667023,0.120164684 106.8288,0.1184 L101.7088,0.1184 C100.870577,0.120164684 100.191998,0.800175272 100.192,1.6384" id="Shape" fill="#414042"></path>
            </g>
        </g>
    </g>
</svg>