<svg xmlns="http://www.w3.org/2000/svg" xmlns:xlink="http://www.w3.org/1999/xlink" version="1.1" x="0" y="0" width="296" height="57.33" viewBox="0 0 296 57.33" xml:space="preserve" enable-background="new 0 0 296 57.3335">
  <style type="text/css">
    
	.st0{fill:#E37F1C;}
	.st1{fill-rule:evenodd;clip-rule:evenodd;fill:#435A68;}
	.st2{fill:#FFFFFF;}

  </style>
  <g id="Layer_1"/>
  <g id="Layer_2">
    <path class="st1" d="M35.24 19.39L23.24 41.03c-0.68 1.28-1.18 2.36-1.51 3.23 -0.32 0.88-0.51 1.47-0.51 1.47 0.02-0.04-0.11-0.61-0.09-1.49 0.01-0.89-0.1-1.96-0.33-3.21l-4.2-21.64H5.62l8.94 33.52h9.79l20.51-33.52H35.24zM42.21 52.9h10.31l5.92-33.56H48.13L42.21 52.9zM165.97 21.01c-2.54-1.5-5.94-2.26-10.21-2.29 -4.25 0.03-7.92 0.79-10.98 2.29 -3.07 1.5-5.52 3.55-7.37 6.17 -1.84 2.61-3.06 5.6-3.65 8.97 -0.59 3.32-0.42 6.29 0.5 8.89 -3.09 1.44-8.28 3.42-12.13 3.01 -3.17-0.04-5.4-1.14-6.7-3.29 -1.29-2.15-1.61-5.1-0.96-8.85 0.63-3.72 1.93-6.64 3.9-8.77 1.97-2.13 4.7-3.21 8.19-3.25 1.47 0.01 2.67 0.16 3.6 0.44 0.93 0.28 1.68 0.61 2.23 1l2.96-4.29c-0.73-0.56-1.92-1.08-3.55-1.55 -1.63-0.47-3.84-0.73-6.6-0.75 -3.42 0.01-6.6 0.68-9.55 2.01 -2.95 1.33-5.45 3.29-7.49 5.86 -2.04 2.57-3.41 5.72-4.1 9.44 -0.88 5.58 0.06 9.88 2.83 12.9 2.77 3.03 6.79 4.56 12.09 4.59 2.74-0.02 5.02-0.25 6.85-0.69 1.83-0.44 3.26-0.98 4.29-1.62l4.57-5.18c0.99 2.14 2.58 3.87 4.79 5.18 2.54 1.5 5.93 2.27 10.17 2.3 4.26-0.03 7.92-0.8 10.98-2.3 3.07-1.51 5.52-3.56 7.37-6.17 1.84-2.6 3.06-5.57 3.64-8.9 0.6-3.37 0.44-6.36-0.47-8.97C170.23 24.56 168.51 22.51 165.97 21.01zM161.4 36.09c-0.35 2.15-0.91 4.15-1.68 6 -0.77 1.85-1.89 3.35-3.35 4.49 -1.46 1.15-3.41 1.74-5.84 1.77 -2.33-0.03-4.04-0.62-5.1-1.77 -1.06-1.14-1.67-2.64-1.82-4.49 -0.15-1.85-0.03-3.85 0.38-6 0.36-2.17 0.93-4.21 1.72-6.11s1.92-3.44 3.39-4.63c1.47-1.19 3.41-1.8 5.81-1.83 2.42 0.04 4.15 0.65 5.2 1.83 1.05 1.19 1.63 2.73 1.74 4.63C161.97 31.88 161.81 33.92 161.4 36.09zM97.11 4.02c0 0-1.26 0.1-2.33 0.89 -1.28 0.95-1.51 2.18-1.51 2.18l-2.21 12.56c-1.95-0.43-4.2-0.63-6.73-0.62 -6.01 0.04-11.09 1.59-15.22 4.64 -4.14 3.05-6.74 7.33-7.8 12.86 -0.9 5.37 0.22 9.53 3.36 12.49 3.14 2.96 8.09 4.46 14.85 4.51 7.04-0.06 12.48-0.87 16.31-2.43l8.3-47.07H97.11zM86.08 47.92c-1.24 0.53-3.05 0.78-5.46 0.75 -3.93-0.05-6.6-1.2-7.99-3.44s-1.74-5.29-1.03-9.14c0.4-2.39 1.16-4.55 2.26-6.46 1.1-1.92 2.63-3.44 4.59-4.57 1.96-1.13 4.42-1.7 7.4-1.73 1.61-0.01 3.1 0.13 4.49 0.44L86.08 47.92zM239.11 23.98c-0.83-1.55-2.32-2.81-4.46-3.77 -2.14-0.96-5-1.46-8.6-1.49 -3.46 0.02-6.44 0.38-8.95 1.07 -2.52 0.69-4.62 1.56-6.31 2.61 -1.09-1.08-2.71-1.96-4.86-2.63 -2.15-0.67-5.05-1.02-8.69-1.04 -3.75 0-7.01 0.2-9.78 0.61 -2.77 0.41-5.34 1.01-7.71 1.82l-5.64 31.75 10.35 0 5.02-28.46c1.03-0.31 2.07-0.54 3.12-0.7s2.31-0.23 3.8-0.23c2.79 0.02 4.83 0.51 6.1 1.46 1.28 0.95 1.77 2.25 1.49 3.89l-4.24 24.04h10.31l4.77-27.02c2.3-1.55 4.97-2.31 8.01-2.3 2.72 0.04 4.59 0.59 5.62 1.64 1.03 1.05 1.4 2.33 1.11 3.84l-4.21 23.85h10.31l4.22-23.91C240.2 27.2 239.94 25.53 239.11 23.98zM48.69 16.74l10.69-5.66 -8.28-6.2L48.69 16.74z"/>
    <path class="st1" d="M120.74 11.97c-0.03 0.19-0.05 0.35-0.07 0.47 -0.01 0.12-0.02 0.18-0.02 0.19h-0.02c0 0-0.02-0.06-0.06-0.18 -0.04-0.12-0.09-0.27-0.17-0.45l-1.69-4.17h-0.84l-1.05 5.94h0.66l0.76-4.32c0.03-0.19 0.06-0.36 0.08-0.51s0.03-0.22 0.03-0.23h0.02c0 0.01 0.03 0.08 0.07 0.22 0.05 0.14 0.11 0.31 0.18 0.5l1.77 4.34h0.69l1.05-5.94h-0.67L120.74 11.97zM124.56 13.77h2.76l0.09-0.54h-1.96l0.4-2.27h1.76l0.09-0.53h-1.76l0.37-2.07h1.96l0.1-0.54h-2.76L124.56 13.77zM135.28 12.12c-0.06 0.17-0.12 0.32-0.16 0.46s-0.06 0.21-0.06 0.22h-0.02c0-0.01 0-0.08 0.01-0.22s0-0.29-0.01-0.46l-0.26-4.29h-0.61l-1.79 4.29c-0.07 0.18-0.13 0.34-0.18 0.47 -0.05 0.13-0.07 0.2-0.07 0.21h-0.02c0-0.01 0.01-0.08 0.01-0.21s0.01-0.29 0.01-0.47l-0.1-4.29h-0.82l0.34 5.94h0.7l1.74-4.15c0.08-0.19 0.13-0.34 0.17-0.47 0.04-0.13 0.06-0.19 0.06-0.2h0.02c0 0.01 0 0.07 0 0.2s0 0.28 0.02 0.47l0.27 4.15h0.7l2.44-5.94h-0.73L135.28 12.12zM146.6 7.82l-0.09 0.54h2.05l-3.14 5.41h3.25l0.09-0.54h-2.22l3.11-5.41H146.6zM151.74 13.77h2.76l0.09-0.54h-1.96l0.4-2.27h1.76l0.09-0.53h-1.76l0.37-2.07h1.96l0.09-0.54h-2.76L151.74 13.77zM160.1 7.82l-3.06 5.94h0.73l0.89-1.78h2.04l0.25 1.78h0.82l-0.96-5.94H160.1zM158.88 11.51l1.11-2.26c0.11-0.23 0.19-0.41 0.24-0.53 0.05-0.12 0.07-0.18 0.07-0.18h0.02c0 0 0 0.06 0 0.18 0 0.12 0.02 0.3 0.05 0.53l0.29 2.26H158.88zM166.59 7.82h-0.79l-1.05 5.94h2.58l0.09-0.54h-1.79L166.59 7.82zM172.98 7.82l-3.06 5.94h0.73l0.89-1.78h2.04l0.25 1.78h0.82l-0.96-5.94H172.98zM171.76 11.51l1.11-2.26c0.11-0.23 0.19-0.41 0.24-0.53 0.05-0.12 0.07-0.18 0.07-0.18h0.02c0 0 0 0.06 0 0.18 0 0.12 0.02 0.3 0.05 0.53l0.29 2.26H171.76zM181.51 11.97c-0.03 0.19-0.06 0.35-0.07 0.47s-0.02 0.18-0.02 0.19h-0.02c0 0-0.02-0.06-0.06-0.18 -0.04-0.12-0.09-0.27-0.17-0.45l-1.69-4.17h-0.84l-1.05 5.94h0.67l0.76-4.32c0.03-0.19 0.06-0.36 0.08-0.51 0.02-0.14 0.03-0.22 0.03-0.23h0.02c0 0.01 0.02 0.08 0.07 0.22 0.04 0.14 0.11 0.31 0.18 0.5l1.77 4.34h0.69l1.05-5.94h-0.67L181.51 11.97zM187.93 7.74c-0.33 0-0.63 0.03-0.9 0.09s-0.51 0.14-0.7 0.24l-0.96 5.47c0.14 0.09 0.34 0.17 0.61 0.23 0.26 0.06 0.57 0.09 0.91 0.09 0.56 0 1.04-0.14 1.45-0.4s0.74-0.63 0.99-1.09c0.25-0.47 0.44-1.01 0.54-1.62 0.16-0.93 0.09-1.66-0.23-2.19S188.75 7.75 187.93 7.74zM189.05 10.73c-0.14 0.84-0.38 1.48-0.72 1.91 -0.33 0.43-0.8 0.65-1.4 0.66 -0.31 0-0.55-0.04-0.72-0.11l0.85-4.81c0.11-0.04 0.22-0.07 0.34-0.09 0.12-0.02 0.26-0.03 0.41-0.03C188.94 8.26 189.35 9.08 189.05 10.73zM200.63 7.82h-0.79l-1.05 5.94h2.58l0.09-0.54h-1.79L200.63 7.82zM204.47 13.77h0.8l1.05-5.94h-0.79L204.47 13.77zM211.92 12.13c-0.09 0.2-0.16 0.36-0.2 0.48s-0.07 0.18-0.07 0.19h-0.02c0 0 0-0.07 0-0.19s-0.01-0.28-0.03-0.49l-0.44-4.29h-0.84l-1.76 5.94H209.25c0.01-0.02 0.04-0.14 0.1-0.36 0.06-0.22 0.14-0.5 0.23-0.83s0.2-0.69 0.3-1.07c0.1-0.37 0.2-0.73 0.3-1.06 0.09-0.33 0.17-0.6 0.23-0.81 0.06-0.21 0.09-0.32 0.09-0.32 0.05-0.18 0.09-0.34 0.12-0.48 0.03-0.14 0.04-0.21 0.05-0.21h0.02c0 0.01 0 0.08 0.01 0.21 0.01 0.14 0.02 0.29 0.03 0.48 0 0.01 0.01 0.11 0.03 0.32 0.02 0.21 0.05 0.48 0.08 0.81 0.03 0.33 0.07 0.69 0.11 1.06 0.04 0.37 0.08 0.73 0.11 1.07 0.04 0.34 0.06 0.62 0.09 0.83 0.02 0.22 0.04 0.34 0.04 0.36h0.53c0.02-0.03 0.09-0.2 0.23-0.5 0.14-0.3 0.31-0.67 0.51-1.11 0.2-0.44 0.4-0.87 0.6-1.3 0.2-0.43 0.36-0.79 0.5-1.08 0.13-0.29 0.2-0.44 0.21-0.45 0.09-0.19 0.16-0.35 0.21-0.49 0.05-0.13 0.08-0.21 0.08-0.21h0.02c0 0.01-0.01 0.08-0.03 0.21C214.02 8.96 214 9.13 213.98 9.32c0 0.01-0.01 0.11-0.02 0.32 -0.01 0.21-0.04 0.48-0.06 0.81 -0.02 0.33-0.05 0.69-0.08 1.06 -0.03 0.37-0.05 0.73-0.08 1.07 -0.02 0.34-0.04 0.61-0.06 0.83 -0.02 0.22-0.03 0.34-0.03 0.36h0.75l0.34-5.94h-0.84L211.92 12.13zM217.68 13.77h0.79l1.05-5.94h-0.79L217.68 13.77zM222.53 8.36h1.18l-0.96 5.41h0.8l0.95-5.41h1.18l0.1-0.54h-3.16L222.53 8.36zM227.71 13.77h2.76l0.09-0.54h-1.96L229 10.96h1.76l0.09-0.53h-1.76l0.37-2.07h1.96l0.09-0.54h-2.76L227.71 13.77zM237.97 8.55c-0.32-0.53-0.89-0.8-1.71-0.81 -0.33 0-0.62 0.03-0.9 0.09s-0.5 0.14-0.7 0.24l-0.96 5.47c0.14 0.09 0.35 0.17 0.61 0.23s0.56 0.09 0.91 0.09c0.56 0 1.05-0.14 1.45-0.4 0.41-0.26 0.74-0.63 0.99-1.09 0.25-0.47 0.44-1.01 0.54-1.62C238.37 9.8 238.29 9.07 237.97 8.55zM237.39 10.73c-0.14 0.84-0.38 1.48-0.72 1.91 -0.33 0.43-0.8 0.65-1.39 0.66 -0.31 0-0.55-0.04-0.72-0.11l0.85-4.81c0.11-0.04 0.22-0.07 0.34-0.09 0.12-0.02 0.26-0.03 0.41-0.03C237.28 8.26 237.69 9.08 237.39 10.73z"/>
    <rect x="251" y="22" class="st2" width="24" height="28.67"/>
    <path class="st0" d="M256.31 18.63c-3.09 0-6.05 2.51-6.59 5.6l-5.03 28.55h34.94c3.09 0 6.05-2.51 6.59-5.6l5.03-28.55H256.31zM252.15 49.66l5.15-27.45 17.67 14.35L252.15 49.66z"/>
  </g>
</svg>
