<?xml version="1.0" encoding="utf-8"?>
<!-- Generator: Adobe Illustrator 24.1.0, SVG Export Plug-In . SVG Version: 6.00 Build 0)  -->
<svg version="1.1" id="Layer_1" xmlns="http://www.w3.org/2000/svg" xmlns:xlink="http://www.w3.org/1999/xlink" x="0px" y="0px"
	 viewBox="0 0 160 30" style="enable-background:new 0 0 160 30;" xml:space="preserve">
<style type="text/css">
	.st0{fill:#002470;}
</style>
<g>
	<path class="st0" d="M0.1,0.5l0.4,1.3v26.4L0,29.1h9.9c6.9,0,12.7-5.6,12.7-15.1c0-6.9-3.4-13.1-10.6-13.6L0.1,0.5L0.1,0.5z
		 M5.6,3.3h3.2C13.6,3.3,17,6.1,17,14c0,9.7-4,11.7-8.6,11.7H5.6V3.3z M54.5,3.1h6.1l0.9,0.7l1-3.2H42.2L41.5,4l1.6-0.7h5.8v25.1
		l-0.4,1h6.6l-0.4-1V3.1H54.5z M100.5,24.5c-1.5,1.8-3.4,2.7-5.5,2.7c-5.2,0-8-4.6-8-11.8c0-6.2,2.2-12.7,7.7-12.7
		c2.2,0,4.3,1.3,5.5,3.7h0.4V2.1c-1.9-1.3-3.8-1.8-6.1-1.8c-7.2,0-13.3,4.9-13.3,15.8c0,8.6,5.5,13.6,12.5,13.6c2.2,0,4.6,0,6.6-1.3
		v-4.1V24.5z M127.4,14.8c0-6.5-2.8-14.5-12.4-14.5c-8.3,0-13.1,6.3-13.1,14.6c0,9.4,5,14.8,12.4,14.8
		C122.4,29.7,127.4,23,127.4,14.8 M114.8,2.8c5,0,6.9,5.8,6.9,11.2c0,6.9-2.2,13.3-7.4,13.3c-5,0-6.9-5.6-6.9-10.9
		C107.5,6.7,110.3,2.8,114.8,2.8 M144.2,21l-8.4-20.5h-4.6l0.4,0.9l-1.9,26.4l-0.4,1.3h3.5l1.3-17.9l8,17.9h1.9l7.8-17.7l1.5,17.7
		h6.6l-0.4-1.2L157,1.2l0.1-0.7h-4.6L144.2,21z M37.2,20.7l2.8,8.6h6.5l-0.7-0.7l-9.9-28h-5.6l0.6,1.6l-9.2,26.1l-0.4,0.7h4l2.8-8.6
		h9.2V20.7z M29.2,17.3l3.4-10l3.5,10H29.2z M73.1,20.7l2.8,8.6h6.5l-0.7-0.9L71.7,0.5h-5.6l0.6,1.6l-9.2,26.1l-0.4,0.7h4l2.8-8.6
		h9.2C73.1,20.4,73.1,20.7,73.1,20.7z M64.9,17.3l3.4-10l3.5,10H64.9z"/>
</g>
</svg>
