<?xml version="1.0" encoding="UTF-8" standalone="no"?>
<!-- Created with Inkscape (http://www.inkscape.org/) -->

<svg
   xmlns:dc="http://purl.org/dc/elements/1.1/"
   xmlns:cc="http://creativecommons.org/ns#"
   xmlns:rdf="http://www.w3.org/1999/02/22-rdf-syntax-ns#"
   xmlns:svg="http://www.w3.org/2000/svg"
   xmlns="http://www.w3.org/2000/svg"
   xmlns:sodipodi="http://sodipodi.sourceforge.net/DTD/sodipodi-0.dtd"
   xmlns:inkscape="http://www.inkscape.org/namespaces/inkscape"
   id="svg3830"
   version="1.1"
   inkscape:version="0.91 r13725"
   xml:space="preserve"
   width="375"
   height="312.5"
   viewBox="0 0 375 312.5"
   sodipodi:docname="DTA_Logo_gray_inkscape.svg"><metadata
     id="metadata3836"><rdf:RDF><cc:Work
         rdf:about=""><dc:format>image/svg+xml</dc:format><dc:type
           rdf:resource="http://purl.org/dc/dcmitype/StillImage" /><dc:title></dc:title></cc:Work></rdf:RDF></metadata><defs
     id="defs3834"><clipPath
       clipPathUnits="userSpaceOnUse"
       id="clipPath3844"><path
         d="M 0,250 300,250 300,0 0,0 0,250 Z"
         id="path3846"
         inkscape:connector-curvature="0" /></clipPath><clipPath
       clipPathUnits="userSpaceOnUse"
       id="clipPath3856"><path
         d="M 0,250 300,250 300,0 0,0 0,250 Z"
         id="path3858"
         inkscape:connector-curvature="0" /></clipPath><clipPath
       clipPathUnits="userSpaceOnUse"
       id="clipPath3868"><path
         d="M 0,250 300,250 300,0 0,0 0,250 Z"
         id="path3870"
         inkscape:connector-curvature="0" /></clipPath><clipPath
       clipPathUnits="userSpaceOnUse"
       id="clipPath3880"><path
         d="M 0,250 300,250 300,0 0,0 0,250 Z"
         id="path3882"
         inkscape:connector-curvature="0" /></clipPath><clipPath
       clipPathUnits="userSpaceOnUse"
       id="clipPath3978"><path
         d="M 0,250 300,250 300,0 0,0 0,250 Z"
         id="path3980"
         inkscape:connector-curvature="0" /></clipPath></defs><sodipodi:namedview
     pagecolor="#ffffff"
     bordercolor="#666666"
     borderopacity="1"
     objecttolerance="10"
     gridtolerance="10"
     guidetolerance="10"
     inkscape:pageopacity="0"
     inkscape:pageshadow="2"
     inkscape:window-width="1920"
     inkscape:window-height="1176"
     id="namedview3832"
     showgrid="false"
     inkscape:zoom="3.1936"
     inkscape:cx="187.5"
     inkscape:cy="156.25"
     inkscape:window-x="1920"
     inkscape:window-y="0"
     inkscape:window-maximized="1"
     inkscape:current-layer="g3838" /><g
     id="g3838"
     inkscape:groupmode="layer"
     inkscape:label="DTA_Logo_gray"
     transform="matrix(1.25,0,0,-1.25,0,312.5)"><g
       id="g3840"><g
         id="g3842"
         clip-path="url(#clipPath3844)"><g
           id="g3848"
           transform="translate(85.1914,180.7451)"><path
             d="m 0,0 c 0,2.468 -2.812,2.209 -2.812,2.209 l -28.177,0 c -14.155,0 -21.296,-10.258 -21.296,-22.334 l 0,-78.944 c 0,-12.99 12.206,-18.053 18.05,-18.053 l 30.902,0 c 4.155,0 3.249,2.727 3.249,2.727 l 0,91.413 C -0.084,-22.982 0,-2.465 0,0 m 9.782,59.342 10.129,0 c 2.077,0 2.339,-2.338 2.339,-2.338 l 0,-191.138 c 0,-2.853 -4.679,-3.112 -4.679,-3.112 l -60.766,0 c -17.141,0 -30.905,17.921 -30.905,30.902 l 0,92.451 c 0,24.931 19.218,36.098 33.501,36.098 14.284,0 36.878,-0.259 38.175,-0.259 1.298,0 2.34,0.259 2.34,2.336 0,2.078 0.518,31.944 0.518,31.944 0,0 -0.259,2.986 2.987,2.986 3.245,0 6.361,0.13 6.361,0.13"
             style="fill:#919295;fill-opacity:1;fill-rule:nonzero;stroke:none"
             id="path3850"
             inkscape:connector-curvature="0" /></g></g></g><g
       id="g3852"><g
         id="g3854"
         clip-path="url(#clipPath3856)"><g
           id="g3860"
           transform="translate(147.3838,182.9541)"><path
             d="m 0,0 33.948,0 c 1.826,0 1.904,1.74 1.904,2.855 l 0,14.198 c 0,1.981 -2.176,2.817 -4.156,2.817 l -31.62,0 C 1.907,17.018 2.982,13.638 2.982,9.997 2.982,6.306 1.88,2.877 0,0 m -15.326,-8.312 c -4.123,0 -7.918,1.38 -10.978,3.681 l 0,-99.682 c 0,-24.238 22.755,-35.142 32.202,-35.142 l 27.183,0 c 1.309,0 2.771,2.176 2.771,3.287 l 0,14.542 c 0,0.77 -2.001,2.295 -3.463,2.295 l -22.25,0 c -1.546,0 -14.628,6.806 -14.628,17.612 l 0,96.984 c -3.036,-2.237 -6.777,-3.577 -10.837,-3.577 m 10.837,33.043 0,29.717 c 0,1.46 -1.135,2.685 -2.944,2.685 l -8.137,0 -8.657,0 c -1.632,0 -2.077,-2.338 -2.077,-2.338 l 0,-30.168 c 3.06,2.299 6.855,3.679 10.978,3.679 4.06,0 7.801,-1.338 10.837,-3.575"
             style="fill:#919295;fill-opacity:1;fill-rule:nonzero;stroke:none"
             id="path3862"
             inkscape:connector-curvature="0" /></g></g></g><g
       id="g3864"><g
         id="g3866"
         clip-path="url(#clipPath3868)"><g
           id="g3872"
           transform="translate(241.0117,115.9365)"><path
             d="m 0,0 c -9.353,-3.036 -16.187,-7.442 -19.222,-9.786 -3.029,-2.336 -7.876,-9.345 -8.484,-17.053 -0.602,-7.701 2.427,-13.5 4.245,-16.017 1.819,-2.512 9.933,-9.738 17.746,-9.738 l 30.902,0 c 1.057,0 2.427,0.931 2.427,1.778 l 0,58.601 C 27.614,7.785 9.345,3.028 0,0 m -35.148,33.065 -6.666,0 c -2.099,0 -4.673,1.387 -4.673,3.896 l 0,16.101 c 0,7.986 5.449,17.054 8.652,21.036 3.204,3.985 6.323,6.926 10.912,9.262 4.588,2.338 10.318,3.377 12.64,3.377 l 32.112,0 c 3.875,0 16.102,-2.338 22.159,-9.434 6.065,-7.101 9.093,-12.835 9.093,-23.372 l 0,-122.403 c 0,-2.49 -2.056,-4.245 -3.637,-4.245 l -56.265,0 c -17.333,0 -28.224,10.653 -32.554,18.095 -4.322,7.442 -5.798,18.956 -5.707,27.091 0.084,8.141 3.112,22.25 13.5,30.818 10.387,8.572 20.605,11.079 22.942,11.948 2.336,0.865 16.186,5.111 19.908,6.579 3.72,1.472 13.331,4.758 15.842,6.147 2.511,1.383 4.504,2.058 4.504,3.028 l 0,20.17 c 0,2.965 -4.05,15.582 -12.121,15.582 l -23.286,0 c -6.77,0 -17.311,-7.705 -16.878,-17.572 0.434,-9.868 0,-12.4 0,-13.418 0,-1.016 -1.364,-2.686 -2.601,-2.686 l -7.876,0 z"
             style="fill:#919295;fill-opacity:1;fill-rule:nonzero;stroke:none"
             id="path3874"
             inkscape:connector-curvature="0" /></g></g></g><g
       id="g3876"><g
         id="g3878"
         clip-path="url(#clipPath3880)"><g
           id="g3884"
           transform="translate(13.7412,14.9785)"><path
             d="m 0,0 c 0.521,-0.099 1.279,-0.123 2.086,-0.123 4.412,0 6.808,2.519 6.808,6.925 0.022,3.847 -2.112,6.292 -6.476,6.292 C 1.352,13.094 0.545,12.999 0,12.877 L 0,0 Z m -2.063,14.426 c 1.256,0.192 2.75,0.34 4.386,0.34 2.964,0 5.075,-0.703 6.474,-2.033 1.424,-1.332 2.254,-3.22 2.254,-5.861 0,-2.662 -0.806,-4.841 -2.301,-6.341 -1.493,-1.524 -3.961,-2.35 -7.066,-2.35 -1.471,0 -2.704,0.074 -3.747,0.196 l 0,16.049 z"
             style="fill:#53534a;fill-opacity:1;fill-rule:nonzero;stroke:none"
             id="path3886"
             inkscape:connector-curvature="0" /></g><g
           id="g3888"
           transform="translate(34.7773,20.3008)"><path
             d="M 0,0 C 0.022,1.357 -0.546,3.463 -2.894,3.463 -5.005,3.463 -5.93,1.479 -6.096,0 L 0,0 Z m -6.118,-1.524 c 0.047,-2.879 1.849,-4.068 3.935,-4.068 1.495,0 2.396,0.27 3.178,0.609 l 0.357,-1.529 c -0.737,-0.336 -1.992,-0.723 -3.82,-0.723 -3.533,0 -5.644,2.371 -5.644,5.906 0,3.533 2.041,6.316 5.384,6.316 3.748,0 4.745,-3.364 4.745,-5.518 0,-0.434 -0.049,-0.774 -0.073,-0.993 l -8.062,0 z"
             style="fill:#53534a;fill-opacity:1;fill-rule:nonzero;stroke:none"
             id="path3890"
             inkscape:connector-curvature="0" /></g><g
           id="g3892"
           transform="translate(39.5918,13.3066)"><path
             d="m 0,0 0,10.093 -1.612,0 0,1.623 1.612,0 0,0.555 c 0,1.648 0.356,3.149 1.329,4.093 0.781,0.777 1.825,1.091 2.798,1.091 0.734,0 1.376,-0.172 1.778,-0.339 L 5.62,15.469 c -0.308,0.146 -0.734,0.265 -1.327,0.265 -1.778,0 -2.23,-1.598 -2.23,-3.388 l 0,-0.63 2.775,0 0,-1.623 -2.775,0 L 2.063,0 0,0 Z"
             style="fill:#53534a;fill-opacity:1;fill-rule:nonzero;stroke:none"
             id="path3894"
             inkscape:connector-curvature="0" /></g><g
           id="g3896"
           transform="translate(53.2764,20.3008)"><path
             d="M 0,0 C 0.023,1.357 -0.545,3.463 -2.894,3.463 -5.005,3.463 -5.93,1.479 -6.096,0 L 0,0 Z m -6.118,-1.524 c 0.047,-2.879 1.848,-4.068 3.936,-4.068 1.494,0 2.396,0.27 3.177,0.609 l 0.357,-1.529 c -0.736,-0.336 -1.992,-0.723 -3.819,-0.723 -3.534,0 -5.645,2.371 -5.645,5.906 0,3.533 2.041,6.316 5.384,6.316 3.748,0 4.745,-3.364 4.745,-5.518 0,-0.434 -0.049,-0.774 -0.073,-0.993 l -8.062,0 z"
             style="fill:#53534a;fill-opacity:1;fill-rule:nonzero;stroke:none"
             id="path3898"
             inkscape:connector-curvature="0" /></g><g
           id="g3900"
           transform="translate(57.877,21.8506)"><path
             d="m 0,0 c 0,1.214 -0.022,2.203 -0.094,3.172 l 1.85,0 0.117,-1.938 0.049,0 c 0.568,1.116 1.897,2.204 3.795,2.204 1.588,0 4.055,-0.969 4.055,-4.988 l 0,-6.994 -2.087,0 0,6.753 C 7.685,0.098 6.997,1.672 5.028,1.672 3.653,1.672 2.585,0.679 2.23,-0.507 2.136,-0.773 2.088,-1.137 2.088,-1.501 l 0,-7.043 L 0,-8.544 0,0 Z"
             style="fill:#53534a;fill-opacity:1;fill-rule:nonzero;stroke:none"
             id="path3902"
             inkscape:connector-curvature="0" /></g><g
           id="g3904"
           transform="translate(79.2236,13.7432)"><path
             d="m 0,0 c -0.546,-0.29 -1.756,-0.678 -3.297,-0.678 -3.462,0 -5.716,2.396 -5.716,5.977 0,3.609 2.42,6.222 6.167,6.222 1.234,0 2.325,-0.315 2.893,-0.605 L -0.427,9.271 c -0.498,0.292 -1.28,0.557 -2.419,0.557 -2.633,0 -4.056,-1.986 -4.056,-4.432 0,-2.709 1.709,-4.381 3.985,-4.381 1.186,0 1.969,0.314 2.562,0.58 L 0,0 Z"
             style="fill:#53534a;fill-opacity:1;fill-rule:nonzero;stroke:none"
             id="path3906"
             inkscape:connector-curvature="0" /></g><g
           id="g3908"
           transform="translate(88.8066,20.3008)"><path
             d="M 0,0 C 0.022,1.357 -0.546,3.463 -2.895,3.463 -5.005,3.463 -5.93,1.479 -6.097,0 L 0,0 Z m -6.119,-1.524 c 0.047,-2.879 1.848,-4.068 3.936,-4.068 1.494,0 2.396,0.27 3.177,0.609 l 0.358,-1.529 c -0.737,-0.336 -1.993,-0.723 -3.82,-0.723 -3.534,0 -5.644,2.371 -5.644,5.906 0,3.533 2.04,6.316 5.383,6.316 3.749,0 4.745,-3.364 4.745,-5.518 0,-0.434 -0.049,-0.774 -0.072,-0.993 l -8.063,0 z"
             style="fill:#53534a;fill-opacity:1;fill-rule:nonzero;stroke:none"
             id="path3910"
             inkscape:connector-curvature="0" /></g><g
           id="g3912"
           transform="translate(100.5693,27.8311)"><path
             d="m 0,0 -4.863,0 0,1.79 11.836,0 0,-1.79 -4.887,0 0,-14.524 -2.086,0 L 0,0 Z"
             style="fill:#53534a;fill-opacity:1;fill-rule:nonzero;stroke:none"
             id="path3914"
             inkscape:connector-curvature="0" /></g><g
           id="g3916"
           transform="translate(114.8477,20.3008)"><path
             d="M 0,0 C 0.022,1.357 -0.546,3.463 -2.895,3.463 -5.005,3.463 -5.93,1.479 -6.096,0 L 0,0 Z m -6.119,-1.524 c 0.048,-2.879 1.848,-4.068 3.936,-4.068 1.494,0 2.396,0.27 3.178,0.609 l 0.357,-1.529 c -0.737,-0.336 -1.993,-0.723 -3.82,-0.723 -3.534,0 -5.644,2.371 -5.644,5.906 0,3.533 2.041,6.316 5.383,6.316 3.749,0 4.745,-3.364 4.745,-5.518 0,-0.434 -0.049,-0.774 -0.072,-0.993 l -8.063,0 z"
             style="fill:#53534a;fill-opacity:1;fill-rule:nonzero;stroke:none"
             id="path3918"
             inkscape:connector-curvature="0" /></g><g
           id="g3920"
           transform="translate(127.6299,13.7432)"><path
             d="m 0,0 c -0.545,-0.29 -1.755,-0.678 -3.296,-0.678 -3.462,0 -5.716,2.396 -5.716,5.977 0,3.609 2.42,6.222 6.167,6.222 1.234,0 2.324,-0.315 2.893,-0.605 L -0.426,9.271 c -0.499,0.292 -1.28,0.557 -2.419,0.557 -2.634,0 -4.056,-1.986 -4.056,-4.432 0,-2.709 1.708,-4.381 3.985,-4.381 1.186,0 1.969,0.314 2.562,0.58 L 0,0 Z"
             style="fill:#53534a;fill-opacity:1;fill-rule:nonzero;stroke:none"
             id="path3922"
             inkscape:connector-curvature="0" /></g><g
           id="g3924"
           transform="translate(130.0732,30.4961)"><path
             d="m 0,0 2.088,0 0,-7.313 0.047,0 c 0.333,0.605 0.853,1.136 1.494,1.501 0.617,0.363 1.351,0.604 2.135,0.604 1.541,0 4.007,-0.969 4.007,-5.008 l 0,-6.973 -2.087,0 0,6.728 c 0,1.889 -0.688,3.487 -2.657,3.487 -1.351,0 -2.418,-0.968 -2.798,-2.13 C 2.11,-9.395 2.088,-9.709 2.088,-10.121 l 0,-7.068 -2.088,0 L 0,0 Z"
             style="fill:#53534a;fill-opacity:1;fill-rule:nonzero;stroke:none"
             id="path3926"
             inkscape:connector-curvature="0" /></g><g
           id="g3928"
           transform="translate(143.2373,21.8506)"><path
             d="m 0,0 c 0,1.214 -0.022,2.203 -0.095,3.172 l 1.851,0 0.117,-1.938 0.049,0 c 0.568,1.116 1.897,2.204 3.795,2.204 1.588,0 4.054,-0.969 4.054,-4.988 l 0,-6.994 -2.087,0 0,6.753 c 0,1.889 -0.688,3.463 -2.657,3.463 -1.374,0 -2.442,-0.993 -2.798,-2.179 -0.094,-0.266 -0.141,-0.63 -0.141,-0.994 l 0,-7.043 L 0,-8.544 0,0 Z"
             style="fill:#53534a;fill-opacity:1;fill-rule:nonzero;stroke:none"
             id="path3930"
             inkscape:connector-curvature="0" /></g><g
           id="g3932"
           transform="translate(157.6797,19.1396)"><path
             d="m 0,0 c 0,-2.566 1.448,-4.501 3.487,-4.501 1.993,0 3.487,1.913 3.487,4.55 0,1.987 -0.972,4.502 -3.438,4.502 C 1.07,4.551 0,2.229 0,0 m 9.107,0.123 c 0,-4.334 -2.937,-6.222 -5.714,-6.222 -3.106,0 -5.501,2.323 -5.501,6.026 0,3.924 2.514,6.221 5.689,6.221 3.299,0 5.526,-2.444 5.526,-6.025"
             style="fill:#53534a;fill-opacity:1;fill-rule:nonzero;stroke:none"
             id="path3934"
             inkscape:connector-curvature="0" /></g><path
           d="m 169.421,30.496 2.088,0 0,-17.189 -2.088,0 0,17.189 z"
           style="fill:#53534a;fill-opacity:1;fill-rule:nonzero;stroke:none"
           id="path3936"
           inkscape:connector-curvature="0" /><g
           id="g3938"
           transform="translate(176.2998,19.1396)"><path
             d="m 0,0 c 0,-2.566 1.448,-4.501 3.487,-4.501 1.993,0 3.487,1.913 3.487,4.55 0,1.987 -0.973,4.502 -3.438,4.502 C 1.066,4.551 0,2.229 0,0 m 9.107,0.123 c 0,-4.334 -2.941,-6.222 -5.714,-6.222 -3.106,0 -5.502,2.323 -5.502,6.026 0,3.924 2.514,6.221 5.69,6.221 3.298,0 5.526,-2.444 5.526,-6.025"
             style="fill:#53534a;fill-opacity:1;fill-rule:nonzero;stroke:none"
             id="path3940"
             inkscape:connector-curvature="0" /></g><g
           id="g3942"
           transform="translate(195.7734,20.3994)"><path
             d="m 0,0 c 0,0.363 -0.024,0.678 -0.119,0.969 -0.382,1.234 -1.4,2.252 -2.917,2.252 -1.993,0 -3.417,-1.721 -3.417,-4.432 0,-2.301 1.141,-4.21 3.392,-4.21 1.281,0 2.442,0.821 2.893,2.179 C -0.05,-2.882 0,-2.47 0,-2.105 L 0,0 Z M 2.157,4.623 C 2.108,3.776 2.063,2.832 2.063,1.405 l 0,-6.801 c 0,-2.69 -0.525,-4.334 -1.637,-5.352 -1.115,-1.066 -2.728,-1.405 -4.176,-1.405 -1.374,0 -2.892,0.339 -3.818,0.968 l 0.524,1.622 c 0.759,-0.482 1.944,-0.919 3.368,-0.919 2.133,0 3.697,1.136 3.697,4.092 l 0,1.308 -0.045,0 c -0.641,-1.091 -1.875,-1.962 -3.652,-1.962 -2.847,0 -4.886,2.469 -4.886,5.711 0,3.973 2.536,6.222 5.169,6.222 1.994,0 3.084,-1.063 3.581,-2.032 l 0.049,0 0.095,1.766 1.825,0 z"
             style="fill:#53534a;fill-opacity:1;fill-rule:nonzero;stroke:none"
             id="path3944"
             inkscape:connector-curvature="0" /></g><g
           id="g3946"
           transform="translate(202.0547,25.0225)"><path
             d="M 0,0 2.515,-6.921 C 2.773,-7.697 3.06,-8.617 3.249,-9.32 l 0.049,0 c 0.213,0.703 0.447,1.598 0.734,2.444 L 6.309,0 8.512,0 5.382,-8.352 c -1.493,-4.018 -2.511,-6.075 -3.935,-7.334 -1.021,-0.919 -2.042,-1.283 -2.563,-1.381 l -0.521,1.791 c 0.521,0.171 1.21,0.51 1.825,1.042 0.571,0.462 1.281,1.284 1.756,2.371 0.094,0.22 0.168,0.388 0.168,0.51 0,0.12 -0.049,0.29 -0.143,0.557 L -2.277,0 0,0 Z"
             style="fill:#53534a;fill-opacity:1;fill-rule:nonzero;stroke:none"
             id="path3948"
             inkscape:connector-curvature="0" /></g><g
           id="g3950"
           transform="translate(225.3926,20.084)"><path
             d="m 0,0 -1.563,4.697 c -0.358,1.067 -0.595,2.032 -0.833,2.977 l -0.045,0 C -2.68,6.705 -2.941,5.715 -3.249,4.722 L -4.812,0 0,0 Z m -5.239,-1.646 -1.661,-5.131 -2.134,0 5.428,16.314 2.49,0 5.456,-16.314 -2.203,0 -1.711,5.131 -5.665,0 z"
             style="fill:#53534a;fill-opacity:1;fill-rule:nonzero;stroke:none"
             id="path3952"
             inkscape:connector-curvature="0" /></g><g
           id="g3954"
           transform="translate(239.458,20.3994)"><path
             d="m 0,0 c 0,0.363 -0.024,0.678 -0.118,0.969 -0.382,1.234 -1.4,2.252 -2.917,2.252 -1.993,0 -3.417,-1.721 -3.417,-4.432 0,-2.301 1.14,-4.21 3.392,-4.21 1.281,0 2.442,0.821 2.893,2.179 C -0.049,-2.882 0,-2.47 0,-2.105 L 0,0 Z M 2.158,4.623 C 2.109,3.776 2.063,2.832 2.063,1.405 l 0,-6.801 c 0,-2.69 -0.52,-4.334 -1.636,-5.352 -1.115,-1.066 -2.728,-1.405 -4.176,-1.405 -1.374,0 -2.892,0.339 -3.815,0.968 l 0.521,1.622 c 0.759,-0.482 1.944,-0.919 3.368,-0.919 2.133,0 3.7,1.136 3.7,4.092 l 0,1.308 -0.049,0 c -0.64,-1.091 -1.874,-1.962 -3.651,-1.962 -2.847,0 -4.887,2.469 -4.887,5.711 0,3.973 2.537,6.222 5.17,6.222 1.994,0 3.084,-1.063 3.581,-2.032 l 0.049,0 0.095,1.766 1.825,0 z"
             style="fill:#53534a;fill-opacity:1;fill-rule:nonzero;stroke:none"
             id="path3956"
             inkscape:connector-curvature="0" /></g><g
           id="g3958"
           transform="translate(252.2656,20.3008)"><path
             d="M 0,0 C 0.024,1.357 -0.546,3.463 -2.893,3.463 -5.005,3.463 -5.928,1.479 -6.096,0 L 0,0 Z m -6.12,-1.524 c 0.049,-2.879 1.849,-4.068 3.937,-4.068 1.495,0 2.397,0.27 3.18,0.609 l 0.354,-1.529 c -0.736,-0.336 -1.991,-0.723 -3.817,-0.723 -3.535,0 -5.644,2.371 -5.644,5.906 0,3.533 2.039,6.316 5.382,6.316 3.746,0 4.743,-3.364 4.743,-5.518 0,-0.434 -0.046,-0.774 -0.071,-0.993 l -8.064,0 z"
             style="fill:#53534a;fill-opacity:1;fill-rule:nonzero;stroke:none"
             id="path3960"
             inkscape:connector-curvature="0" /></g><g
           id="g3962"
           transform="translate(256.8682,21.8506)"><path
             d="m 0,0 c 0,1.214 -0.024,2.203 -0.095,3.172 l 1.851,0 0.119,-1.938 0.045,0 c 0.57,1.116 1.899,2.204 3.795,2.204 1.591,0 4.056,-0.969 4.056,-4.988 l 0,-6.994 -2.087,0 0,6.753 c 0,1.889 -0.686,3.463 -2.655,3.463 -1.378,0 -2.444,-0.993 -2.801,-2.179 -0.094,-0.266 -0.14,-0.63 -0.14,-0.994 l 0,-7.043 L 0,-8.544 0,0 Z"
             style="fill:#53534a;fill-opacity:1;fill-rule:nonzero;stroke:none"
             id="path3964"
             inkscape:connector-curvature="0" /></g><g
           id="g3966"
           transform="translate(278.2129,13.7432)"><path
             d="m 0,0 c -0.546,-0.29 -1.756,-0.678 -3.298,-0.678 -3.463,0 -5.715,2.396 -5.715,5.977 0,3.609 2.416,6.222 6.166,6.222 1.231,0 2.323,-0.315 2.892,-0.605 L -0.427,9.271 c -0.5,0.292 -1.283,0.557 -2.42,0.557 -2.633,0 -4.057,-1.986 -4.057,-4.432 0,-2.709 1.707,-4.381 3.983,-4.381 1.19,0 1.97,0.314 2.564,0.58 L 0,0 Z"
             style="fill:#53534a;fill-opacity:1;fill-rule:nonzero;stroke:none"
             id="path3968"
             inkscape:connector-curvature="0" /></g><g
           id="g3970"
           transform="translate(281.8398,25.0225)"><path
             d="M 0,0 2.515,-6.921 C 2.773,-7.697 3.06,-8.617 3.249,-9.32 l 0.049,0 c 0.213,0.703 0.447,1.598 0.734,2.444 L 6.309,0 8.516,0 5.382,-8.352 c -1.493,-4.018 -2.511,-6.075 -3.935,-7.334 -1.021,-0.919 -2.039,-1.283 -2.563,-1.381 l -0.521,1.791 c 0.521,0.171 1.21,0.51 1.825,1.042 0.571,0.462 1.281,1.284 1.756,2.371 0.094,0.22 0.168,0.388 0.168,0.51 0,0.12 -0.049,0.29 -0.143,0.557 L -2.277,0 0,0 Z"
             style="fill:#53534a;fill-opacity:1;fill-rule:nonzero;stroke:none"
             id="path3972"
             inkscape:connector-curvature="0" /></g></g></g><g
       id="g3974"><g
         id="g3976"
         clip-path="url(#clipPath3978)"><g
           id="g3982"
           transform="translate(120.3506,192.8604)"><path
             d="m 0,0 c 0,-6.589 5.341,-11.933 11.93,-11.933 6.587,0 11.929,5.344 11.929,11.933 0,6.589 -5.342,11.93 -11.929,11.93 C 5.341,11.93 0,6.589 0,0"
             style="fill:#ffd457;fill-opacity:1;fill-rule:nonzero;stroke:none"
             id="path3984"
             inkscape:connector-curvature="0" /></g></g></g></g></svg>